<svg xmlns="http://www.w3.org/2000/svg" width="250" height="228" viewBox="0 0 250 228" fill="none"><path d="M124.844 67.8072C117.094 67.8072 109.518 70.1053 103.075 74.4108C96.6308 78.7164 91.6086 84.836 88.6429 91.9959C85.6771 99.1558 84.9012 107.034 86.4131 114.635C87.925 122.236 91.6569 129.218 97.1368 134.698C102.617 140.178 109.599 143.91 117.199 145.422C124.8 146.934 132.679 146.158 139.839 143.192C146.999 140.226 153.118 135.204 157.424 128.76C161.729 122.316 164.028 114.741 164.028 106.991C164.016 96.6023 159.884 86.6426 152.538 79.2968C145.192 71.951 135.232 67.8189 124.844 67.8072ZM124.844 140.128C118.29 140.128 111.883 138.184 106.434 134.543C100.985 130.902 96.7373 125.727 94.2292 119.672C91.7211 113.617 91.0649 106.954 92.3435 100.526C93.6221 94.0982 96.7781 88.1937 101.412 83.5594C106.047 78.9251 111.951 75.7691 118.379 74.4905C124.807 73.2119 131.47 73.8682 137.525 76.3762C143.58 78.8843 148.755 83.1315 152.396 88.5809C156.037 94.0303 157.981 100.437 157.981 106.991C157.971 115.776 154.477 124.199 148.264 130.411C142.052 136.624 133.629 140.118 124.844 140.128Z" fill="#DC4433"></path><path d="M124.844 97.531C122.773 97.5294 120.762 98.2297 119.14 99.5177C117.518 100.806 116.381 102.605 115.913 104.623C115.445 106.641 115.675 108.757 116.565 110.628C117.455 112.498 118.952 114.011 120.813 114.921V121.189C120.813 121.991 121.131 122.76 121.698 123.327C122.265 123.894 123.034 124.213 123.836 124.213C124.638 124.213 125.407 123.894 125.974 123.327C126.541 122.76 126.859 121.991 126.859 121.189V115.637C129.06 115.141 131.001 113.852 132.31 112.015C133.619 110.178 134.205 107.923 133.955 105.682C133.706 103.44 132.638 101.369 130.957 99.8652C129.276 98.3613 127.099 97.5303 124.844 97.531ZM124.844 109.821C124.227 109.821 123.623 109.638 123.11 109.295C122.596 108.952 122.196 108.464 121.96 107.894C121.724 107.323 121.662 106.696 121.782 106.09C121.903 105.485 122.2 104.928 122.637 104.492C123.073 104.055 123.629 103.758 124.235 103.638C124.84 103.517 125.468 103.579 126.038 103.815C126.609 104.051 127.096 104.452 127.439 104.965C127.782 105.478 127.965 106.082 127.965 106.699C127.965 107.527 127.636 108.32 127.05 108.906C126.465 109.491 125.672 109.82 124.844 109.821Z" fill="#DC4433"></path><path d="M221.879 113.127C222.477 115.746 223.801 118.143 225.697 120.046C227.679 122.046 230.211 123.412 232.971 123.971C235.731 124.529 238.595 124.256 241.198 123.184C243.802 122.112 246.029 120.291 247.596 117.951C249.163 115.612 250 112.859 250 110.044C250 107.228 249.163 104.475 247.596 102.136C246.029 99.7963 243.802 97.9751 241.198 96.9034C238.595 95.8317 235.731 95.5578 232.971 96.1166C230.211 96.6753 227.679 98.0414 225.697 100.041C223.797 101.989 222.475 104.426 221.879 107.08H182.093C182.064 100.026 180.788 93.0315 178.325 86.421H195.283C197.086 86.4325 198.874 86.0858 200.542 85.4012C202.21 84.7165 203.726 83.7075 205.001 82.4325C206.277 81.1576 207.286 79.6422 207.971 77.9741C208.656 76.306 209.004 74.5185 208.993 72.7153V67.2733C208.993 62.9686 212.638 59.2157 216.943 59.2157H219.379C219.86 61.9309 221.198 64.4208 223.197 66.3204C224.832 67.972 226.85 69.1941 229.071 69.878C231.293 70.5619 233.648 70.6865 235.929 70.2407C238.21 69.795 240.346 68.7926 242.146 67.3228C243.946 65.8529 245.356 63.9611 246.249 61.8155C247.142 59.6698 247.491 57.3367 247.265 55.0236C247.04 52.7105 246.246 50.4889 244.955 48.5564C243.664 46.6239 241.915 45.0402 239.865 43.9461C237.814 42.8521 235.525 42.2815 233.201 42.2851C231.35 42.2578 229.512 42.5994 227.795 43.29C226.077 43.9807 224.514 45.0065 223.198 46.3076C221.303 48.187 219.979 50.5643 219.379 53.1645H216.943C209.304 53.1645 202.946 59.6298 202.946 67.2688V72.7107C202.958 73.7205 202.769 74.7226 202.388 75.658C202.007 76.5934 201.443 77.4431 200.729 78.1572C200.015 78.8714 199.165 79.4354 198.23 79.8162C197.295 80.1969 196.293 80.3867 195.283 80.3743H175.594C174.385 78.3588 173.217 76.0016 171.705 73.8943V46.6896C171.705 20.945 150.589 0 124.844 0C99.0986 0 77.9822 20.945 77.9822 46.6896V73.8943C76.4706 76.0016 75.3006 78.3588 74.0933 80.3743H54.4044C53.395 80.3867 52.3933 80.1971 51.4583 79.8166C50.5232 79.4361 49.6737 78.8725 48.9597 78.1588C48.2457 77.4452 47.6816 76.596 47.3006 75.6611C46.9197 74.7263 46.7295 73.7247 46.7413 72.7153V67.2733C46.7413 59.6298 40.3833 53.1645 32.7444 53.1645H30.3081C29.6284 50.0437 27.9277 47.2385 25.475 45.1926C23.0223 43.1467 19.9575 41.9768 16.7654 41.868C13.5733 41.7593 10.436 42.7177 7.84968 44.5919C5.26337 46.4661 3.37565 49.1489 2.48507 52.2163C1.5945 55.2836 1.75189 58.5602 2.93235 61.5281C4.11282 64.4959 6.24899 66.9855 9.00302 68.6031C11.7571 70.2208 14.9718 70.8742 18.1388 70.4599C21.3058 70.0457 24.2443 68.5875 26.4897 66.3159C28.4892 64.4167 29.8275 61.9267 30.3081 59.2111H32.7444C37.0491 59.2111 40.6947 62.9641 40.6947 67.2688V72.7107C40.6831 74.5144 41.0298 76.3024 41.7147 77.971C42.3996 79.6395 43.409 81.1555 44.6843 82.431C45.9597 83.7064 47.4757 84.7158 49.1442 85.4008C50.8128 86.0857 52.6008 86.4325 54.4044 86.421H71.3627C68.8989 93.0315 67.6233 100.026 67.5946 107.08H27.8083C27.2123 104.425 25.8905 101.987 23.9904 100.038C22.0158 98.0826 19.5066 96.7548 16.7788 96.2224C14.051 95.6899 11.2267 95.9766 8.66152 97.0463C6.09636 98.1159 3.90511 99.9208 2.36378 102.234C0.82246 104.546 0 107.263 0 110.043C0 112.822 0.82246 115.539 2.36378 117.852C3.90511 120.164 6.09636 121.969 8.66152 123.039C11.2267 124.109 14.051 124.395 16.7788 123.863C19.5066 123.33 22.0158 122.003 23.9904 120.047C25.8869 118.144 27.21 115.746 27.8083 113.127H67.9096C68.7875 121.508 71.4988 129.593 75.8513 136.81H54.4044C52.6054 136.789 50.8203 137.127 49.1531 137.803C47.486 138.479 45.9702 139.481 44.6941 140.749C43.418 142.017 42.4072 143.527 41.7205 145.19C41.0339 146.853 40.6852 148.636 40.6947 150.435V157.137C40.663 159.23 39.8134 161.228 38.3275 162.702C36.8417 164.177 34.8377 165.011 32.7444 165.027H30.3081C29.7117 162.377 28.3897 159.946 26.4902 158.004C24.5139 156.039 21.9998 154.703 19.2651 154.165C16.5305 153.627 13.6977 153.911 11.1243 154.982C8.55085 156.052 6.35203 157.86 4.80524 160.179C3.25844 162.497 2.43298 165.222 2.43298 168.009C2.43298 170.796 3.25844 173.521 4.80524 175.839C6.35203 178.158 8.55085 179.966 11.1243 181.036C13.6977 182.106 16.5305 182.39 19.2651 181.852C21.9998 181.314 24.5139 179.979 26.4902 178.013C28.3873 176.103 29.7102 173.699 30.3081 171.074H32.7444C36.441 171.056 39.9819 169.584 42.6014 166.975C45.2208 164.367 46.708 160.832 46.7413 157.136V150.434C46.7309 149.429 46.9226 148.432 47.3051 147.502C47.6876 146.572 48.2531 145.729 48.9679 145.022C49.6827 144.315 50.5323 143.759 51.4662 143.387C52.4002 143.015 53.3993 142.835 54.4044 142.856H80.0729C84.0233 147.391 88.5639 151.867 94.1066 155.286V172.696C94.1157 174.778 93.3042 176.78 91.848 178.269C90.3917 179.757 88.4079 180.611 86.3261 180.648H79.6244C77.8196 180.636 76.0303 180.982 74.3603 181.667C72.6902 182.351 71.1726 183.36 69.8951 184.635C68.6176 185.91 67.6058 187.426 66.9181 189.095C66.2305 190.763 65.8807 192.552 65.889 194.357V196.802C63.2299 197.382 60.7892 198.702 58.8492 200.611C56.869 202.585 55.5192 205.103 54.9707 207.845C54.4222 210.587 54.6996 213.43 55.7678 216.014C56.8361 218.599 58.6472 220.808 60.9717 222.362C63.2962 223.917 66.0298 224.746 68.8261 224.746C71.6225 224.746 74.356 223.917 76.6806 222.362C79.0051 220.808 80.8162 218.599 81.8844 216.014C82.9527 213.43 83.2301 210.587 82.6816 207.845C82.1331 205.103 80.7833 202.585 78.8031 200.611H78.8595C76.9631 198.705 74.5602 197.384 71.9356 196.802V194.357C71.9264 193.346 72.1192 192.343 72.5028 191.407C72.8863 190.472 73.4528 189.622 74.1691 188.908C74.8854 188.195 75.7369 187.631 76.6739 187.251C77.6109 186.871 78.6143 186.681 79.6254 186.694H86.3271C90.012 186.656 93.5325 185.164 96.1221 182.542C98.7117 179.92 100.161 176.381 100.153 172.696V158.648C107.548 162.207 115.63 164.111 123.836 164.226V199.291C121.187 199.888 118.756 201.21 116.816 203.109H116.796C114.822 205.089 113.48 207.609 112.937 210.351C112.395 213.093 112.678 215.934 113.749 218.515C114.821 221.097 116.633 223.303 118.958 224.855C121.283 226.407 124.015 227.235 126.81 227.235C129.605 227.235 132.338 226.407 134.662 224.855C136.987 223.303 138.8 221.097 139.871 218.515C140.943 215.934 141.225 213.093 140.683 210.351C140.141 207.609 138.798 205.089 136.825 203.109C134.914 201.212 132.508 199.89 129.882 199.291V164.019C136.902 163.408 143.741 161.469 150.038 158.307V172.693C150.071 176.398 151.558 179.941 154.179 182.56C156.799 185.179 160.344 186.663 164.048 186.694H169.49C170.505 186.68 171.512 186.868 172.454 187.247C173.395 187.625 174.252 188.188 174.974 188.901C175.696 189.614 176.269 190.464 176.659 191.4C177.049 192.337 177.25 193.342 177.248 194.357V196.793C174.619 197.391 172.21 198.713 170.294 200.611C168.307 202.591 166.952 205.116 166.401 207.866C165.851 210.617 166.128 213.469 167.2 216.061C168.271 218.654 170.087 220.87 172.419 222.43C174.751 223.989 177.493 224.822 180.298 224.822C183.103 224.822 185.845 223.989 188.177 222.43C190.508 220.87 192.325 218.654 193.396 216.061C194.467 213.469 194.745 210.617 194.194 207.866C193.643 205.116 192.288 202.591 190.301 200.611C188.367 198.712 185.941 197.39 183.297 196.793V194.357C183.298 192.548 182.941 190.757 182.246 189.087C181.552 187.417 180.533 185.901 179.25 184.627C177.967 183.352 176.444 182.345 174.769 181.662C173.094 180.979 171.301 180.634 169.492 180.648H164.05C161.949 180.619 159.941 179.773 158.454 178.288C156.967 176.803 156.117 174.798 156.085 172.696V154.837C161.144 151.51 165.7 147.476 169.614 142.856H195.283C196.288 142.835 197.287 143.015 198.221 143.387C199.155 143.759 200.005 144.315 200.72 145.022C201.435 145.729 202 146.573 202.382 147.503C202.765 148.433 202.956 149.43 202.946 150.435V157.137C202.98 160.833 204.467 164.368 207.086 166.976C209.706 169.584 213.246 171.056 216.943 171.074H219.379C219.977 173.698 221.3 176.102 223.197 178.012C225.178 180.005 227.706 181.365 230.461 181.92C233.215 182.474 236.072 182.198 238.67 181.127C241.268 180.055 243.489 178.237 245.052 175.902C246.614 173.567 247.449 170.82 247.449 168.01C247.449 165.2 246.614 162.454 245.052 160.118C243.489 157.783 241.268 155.965 238.67 154.894C236.072 153.822 233.215 153.546 230.461 154.101C227.706 154.655 225.178 156.015 223.197 158.008C221.298 159.948 219.976 162.378 219.379 165.027H216.943C214.849 165.011 212.845 164.177 211.359 162.702C209.874 161.227 209.024 159.229 208.993 157.136V150.434C209.002 148.635 208.653 146.852 207.966 145.189C207.28 143.527 206.269 142.017 204.993 140.749C203.717 139.481 202.201 138.479 200.534 137.803C198.867 137.127 197.082 136.789 195.283 136.81H173.836C178.188 129.593 180.9 121.508 181.778 113.127H221.879ZM229.973 104.252C231.299 102.928 233.042 102.103 234.907 101.92C236.772 101.736 238.643 102.205 240.201 103.247C241.759 104.288 242.908 105.837 243.451 107.63C243.995 109.424 243.9 111.35 243.183 113.081C242.466 114.813 241.17 116.241 239.518 117.125C237.865 118.008 235.957 118.291 234.119 117.925C232.281 117.559 230.627 116.568 229.438 115.119C228.25 113.671 227.6 111.855 227.6 109.981C227.597 108.916 227.806 107.862 228.213 106.879C228.62 105.896 229.219 105.003 229.973 104.252ZM227.474 50.7106C228.799 49.3857 230.542 48.5613 232.407 48.3779C234.272 48.1945 236.143 48.6634 237.701 49.7047C239.259 50.7459 240.408 52.2952 240.952 54.0885C241.495 55.8818 241.401 57.8082 240.683 59.5394C239.966 61.2706 238.671 62.6996 237.018 63.5828C235.365 64.466 233.457 64.7489 231.62 64.3832C229.782 64.0175 228.127 63.0259 226.939 61.5773C225.75 60.1286 225.1 58.3127 225.1 56.4387C225.097 55.3744 225.306 54.3201 225.713 53.3368C226.12 52.3536 226.719 51.4609 227.474 50.7106ZM22.2137 62.1669C20.8884 63.4918 19.1448 64.3161 17.2798 64.4996C15.4149 64.683 13.5441 64.2141 11.9861 63.1728C10.4281 62.1315 9.27936 60.5823 8.73558 58.789C8.1918 56.9957 8.28663 55.0693 9.00391 53.3381C9.72119 51.6069 11.0165 50.1779 12.6693 49.2947C14.322 48.4114 16.2298 48.1286 18.0677 48.4943C19.9056 48.86 21.5599 49.8516 22.7486 51.3002C23.9373 52.7488 24.587 54.5648 24.587 56.4387C24.5898 57.503 24.3815 58.5573 23.9741 59.5406C23.5668 60.5238 22.9684 61.4165 22.2137 62.1669ZM19.7144 115.709C18.3892 117.034 16.6455 117.859 14.7804 118.042C12.9154 118.226 11.0444 117.757 9.48617 116.716C7.92797 115.675 6.77899 114.125 6.23502 112.332C5.69104 110.539 5.78573 108.612 6.50293 106.881C7.22013 105.149 8.51549 103.72 10.1683 102.837C11.8211 101.953 13.729 101.67 15.5671 102.036C17.4052 102.401 19.0596 103.393 20.2485 104.842C21.4374 106.29 22.0872 108.107 22.0872 109.981C22.0862 112.129 21.2328 114.189 19.7144 115.709ZM22.2137 173.694C21.0807 174.827 19.6373 175.599 18.0659 175.911C16.4944 176.224 14.8656 176.063 13.3853 175.45C11.905 174.837 10.6398 173.799 9.74965 172.466C8.8595 171.134 8.38438 169.568 8.38438 167.966C8.38438 166.364 8.8595 164.797 9.74965 163.465C10.6398 162.133 11.905 161.095 13.3853 160.481C14.8656 159.868 16.4944 159.708 18.0659 160.02C19.6373 160.333 21.0807 161.105 22.2137 162.238C22.966 162.99 23.5628 163.883 23.97 164.866C24.3772 165.849 24.5867 166.902 24.5867 167.966C24.5867 169.03 24.3772 170.083 23.97 171.066C23.5628 172.049 22.966 172.942 22.2137 173.694ZM74.5236 216.342C73.3909 217.474 71.9481 218.245 70.3775 218.557C68.8069 218.869 67.1791 218.708 65.6998 218.095C64.2206 217.482 62.9563 216.444 62.0668 215.113C61.1773 213.781 60.7025 212.216 60.7025 210.614C60.7025 209.013 61.1773 207.448 62.0668 206.116C62.9563 204.785 64.2206 203.747 65.6998 203.134C67.1791 202.521 68.8069 202.36 70.3775 202.672C71.9481 202.984 73.3909 203.755 74.5236 204.887C76.0398 206.407 76.8912 208.467 76.8912 210.614C76.8912 212.762 76.0398 214.822 74.5236 216.342ZM188.423 210.614C188.423 212.216 187.948 213.783 187.058 215.115C186.168 216.447 184.903 217.485 183.423 218.098C181.942 218.711 180.313 218.872 178.742 218.559C177.171 218.247 175.727 217.475 174.594 216.342C173.652 215.4 172.957 214.24 172.571 212.966C172.184 211.691 172.118 210.34 172.378 209.034C172.638 207.727 173.216 206.505 174.061 205.475C174.906 204.445 175.992 203.64 177.223 203.13C178.454 202.62 179.791 202.422 181.117 202.553C182.443 202.683 183.716 203.139 184.824 203.879C185.931 204.619 186.839 205.621 187.467 206.796C188.095 207.97 188.424 209.282 188.424 210.614H188.423ZM227.475 162.238C228.8 160.913 230.544 160.088 232.408 159.905C234.273 159.722 236.144 160.19 237.702 161.232C239.26 162.273 240.409 163.822 240.953 165.616C241.496 167.409 241.402 169.335 240.684 171.066C239.967 172.798 238.672 174.227 237.019 175.11C235.366 175.993 233.458 176.276 231.621 175.91C229.783 175.545 228.128 174.553 226.94 173.104C225.751 171.656 225.101 169.84 225.101 167.966C225.098 166.902 225.306 165.847 225.714 164.864C226.121 163.881 226.719 162.988 227.474 162.238H227.475ZM84.0289 46.6896C84.0289 24.2787 102.433 6.04663 124.844 6.04663C147.254 6.04663 165.658 24.2787 165.658 46.6896V66.712C163.643 64.6642 161.123 62.7675 159.108 61.0427V46.6896C159.108 27.879 143.654 12.5765 124.844 12.5765C106.034 12.5765 90.5794 27.8795 90.5794 46.6896V61.0427C88.5639 62.7675 86.0444 64.6642 84.0289 66.712V46.6896ZM153.061 57.1084C144.441 52.2775 134.725 49.7406 124.844 49.7406C114.962 49.7406 105.246 52.2775 96.626 57.1084V46.6896C96.626 31.2132 109.367 18.6231 124.844 18.6231C140.32 18.6231 153.061 31.2137 153.061 46.6896V57.1084ZM132.508 218.842C130.989 220.361 128.929 221.215 126.78 221.215C124.632 221.215 122.571 220.361 121.052 218.842C119.533 217.323 118.68 215.262 118.68 213.114C118.68 210.965 119.533 208.905 121.052 207.386C121.802 206.623 122.696 206.017 123.681 205.601C124.667 205.185 125.725 204.969 126.795 204.965C127.864 204.96 128.924 205.168 129.913 205.575C130.902 205.982 131.801 206.581 132.557 207.337C133.313 208.094 133.912 208.992 134.32 209.981C134.727 210.97 134.934 212.03 134.93 213.1C134.925 214.17 134.709 215.228 134.293 216.213C133.878 217.199 133.271 218.092 132.508 218.842ZM124.844 158.193C114.717 158.194 104.817 155.191 96.3964 149.564C87.976 143.938 81.4131 135.941 77.5375 126.585C73.662 117.229 72.6479 106.934 74.6236 97.0011C76.5992 87.0686 81.4758 77.945 88.6367 70.784C95.7976 63.623 104.921 58.7463 114.854 56.7706C124.786 54.7949 135.081 55.8088 144.438 59.6843C153.794 63.5597 161.791 70.1226 167.417 78.543C173.043 86.9633 176.046 96.863 176.046 106.99C176.031 120.565 170.632 133.58 161.033 143.179C151.434 152.778 138.419 158.178 124.844 158.193Z" fill="#DC4433"></path></svg>